# xmcd
#
# Track frame offsets:
#	150
#	11190
#	23748
#	36948
#	51061
#	61911
#	75113
#	86307
#	100607
#	112672
#
# Disc length: 1705 seconds
# Revision: 1
# Processed by: cddbd v1.5.2PL0 Copyright (c) Steve Scherf et al.
# Submitted via: dBpowerAMP V12.0
#
DISCID=6006a70a
DTITLE=The Clarke Family with special guest Billy Oskay - Banjo Christmas - Christmas Treasures Series
DYEAR=2003
DGENRE=Christmas
TTITLE0=Joy To The World
TTITLE1=Jingle Bells
TTITLE2=What Child Is This?
TTITLE3=O Jerusalem In The Mornin'
TTITLE4=Little Drummer Boy
TTITLE5=Auld Lang Syne
TTITLE6=Joseph And Mary
TTITLE7=O Come All Ye Faithful
TTITLE8=God Rest Ye Merry Gentlemen
TTITLE9=Silent Night
EXTD=
EXTT0=
EXTT1=
EXTT2=
EXTT3=
EXTT4=
EXTT5=
EXTT6=
EXTT7=
EXTT8=
EXTT9=
PLAYORDER=
